<svg xmlns="http://www.w3.org/2000/svg" width="70" height="70" viewBox="0 0 70 70"><defs><clipPath id="epz4a"><path fill="#fff" d="M35 0c19.33 0 35 15.67 35 35S54.33 70 35 70 0 54.33 0 35 15.67 0 35 0z"/></clipPath></defs><g><g><path fill="#fff" d="M35 0c19.33 0 35 15.67 35 35S54.33 70 35 70 0 54.33 0 35 15.67 0 35 0z"/><path fill="none" stroke="#dcdcdc" stroke-miterlimit="20" stroke-width="2" d="M35 0c19.33 0 35 15.67 35 35S54.33 70 35 70 0 54.33 0 35 15.67 0 35 0z" clip-path="url(&quot;#epz4a&quot;)"/></g><g><path fill="#dcdcdc" d="M23.375 41.89c-.5-.503-.5-1.342 0-1.862a1.227 1.227 0 0 1 1.771 0l9.073 9.445v-31.17c.002-.726.556-1.303 1.254-1.303s1.27.577 1.27 1.304v31.169l9.057-9.445a1.248 1.248 0 0 1 1.79 0c.5.52.5 1.36 0 1.863L36.367 53.572a1.198 1.198 0 0 1-1.77 0z"/></g></g></svg>